<svg xmlns="http://www.w3.org/2000/svg" xmlns:xlink="http://www.w3.org/1999/xlink" version="1.1" width="392.9373" height="191.5981" viewBox="0 0 392.9373 191.5981">
<path transform="matrix(1,0,0,-1,1,190.5981)" d="M169.0191 114.0168C155.857 114.1469 150.1231 97.727 160.0274 80.6553 162.8943 75.5731 164.9795 70.7513 166.413 66.4506 159.5061 57.9801 156.6391 42.0814 167.0644 40.2568 178.793 38.302 187.003 52.2462 178.4021 69.7088 185.5695 73.7484 195.213 81.6979 199.1225 97.3361 199.3833 98.509 196.5163 99.4212 195.8647 97.727 190.5216 82.2192 182.442 76.2245 176.5777 73.097 176.1868 73.8788 175.6655 74.6609 175.1443 75.4427 163.8065 92.2535 170.9739 108.6738 172.2773 108.9343 174.7531 109.4556 175.0139 94.0782 174.7531 92.6447 173.9713 88.2139 179.8356 89.1261 180.4873 92.1234 181.66 97.3361 182.8329 112.8438 170.3225 114.0168 169.8012 114.0168 169.41 114.0168 169.0191 114.0168ZM167.9766 61.4988C170.8438 50.161 168.7586 43.1237 166.5431 43.3845 163.9369 43.645 164.1974 54.4615 167.9766 61.4988" fill="#17708d"/>
<path transform="matrix(1,0,0,-1,1,190.5981)" d="M208.245 104.243C206.6811 104.243 204.9868 104.1126 203.1625 103.4609 195.4738 100.9848 190.9125 93.166 189.3489 86.9105 187.9155 80.6553 187.7851 71.4027 195.9951 69.1875 204.4658 66.8418 208.5055 73.4879 212.0241 81.4374 212.5454 71.7936 216.3246 63.0624 225.7075 62.5411 240.5636 61.8897 243.8218 95.3813 244.2127 97.3361 244.4732 99.1604 241.0849 99.8121 240.694 97.8574 240.1727 95.9026 235.8723 68.9267 227.6623 66.9719 222.7102 65.7992 228.0532 94.7296 225.5771 99.6817 223.3619 103.8521 217.758 102.9396 215.5428 100.8547 215.5428 101.1152 215.4124 101.2456 215.282 101.376 214.8911 101.8973 212.5454 104.1126 208.245 104.243ZM209.4177 98.3786C209.939 98.1179 210.0694 97.727 209.939 96.9452 209.939 96.033 212.415 95.3813 213.0667 95.6418 213.1971 95.7722 213.3272 95.9026 213.588 96.1631 213.588 96.033 213.4576 95.7722 213.4576 95.6418 211.6332 91.7323 203.9445 73.7484 201.0773 73.2274 197.2981 72.4453 207.4629 99.03 209.4177 98.3786" fill="#17708d"/>
<path transform="matrix(1,0,0,-1,1,190.5981)" d="M262.8482 141.7745C243.04 142.6867 232.0931 82.8709 243.8218 66.4506 246.6887 62.5411 251.3801 61.7593 253.4652 62.5411 254.1169 62.5411 254.6382 63.0624 254.6382 63.5837 254.6382 63.714 254.6382 63.8444 254.6382 63.8444 253.8561 75.3123 264.9334 94.9904 266.3668 95.1205 269.2338 95.3813 269.1034 82.0888 267.5395 71.0118 262.7178 67.6236 259.1991 63.714 258.9386 59.6741 258.6779 55.5041 261.5451 53.9402 263.7604 53.1584 272.1008 50.0306 279.2682 62.5411 280.9624 75.0518 290.215 81.1766 296.2094 91.6021 297.1216 97.3361 297.252 98.8999 294.6458 99.5513 294.1245 97.0753 293.2121 93.0356 287.869 83.6527 281.3533 79.0914 281.7442 89.3866 278.2256 98.509 268.1912 97.727 261.4147 97.2057 254.2473 85.3469 252.553 72.1848 251.5105 80.2644 252.0317 90.9505 253.4652 101.376 264.6726 106.0673 277.4438 141.1228 262.8482 141.7745ZM264.5422 138.1255C265.0635 137.9951 265.0635 135.6494 264.803 132.0007 264.1513 125.3543 260.763 112.062 254.1169 105.6764 256.7231 121.0538 260.8934 135.1281 264.2817 137.9951 264.4121 138.1255 264.4121 138.1255 264.5422 138.1255ZM266.6273 66.3205C265.4546 60.1954 263.7604 55.7646 261.936 56.5466 259.5903 57.7193 261.5451 61.8897 266.6273 66.3205" fill="#17708d"/>
<path transform="matrix(1,0,0,-1,1,190.5981)" d="M307.1565 102.5487C306.114 102.5487 305.0714 102.4183 304.0288 102.2882 280.7019 99.6817 281.8749 60.5866 303.247 58.7619 320.9703 57.3284 331.9169 83.5223 334.2626 97.727 334.5233 99.1604 331.0047 99.2908 330.7439 98.1179 327.8769 88.2139 320.5791 63.5837 305.3322 63.714 299.2071 63.714 298.8162 73.4879 300.9013 82.6101 309.8931 82.0888 320.3186 89.7775 317.4517 96.6844 315.6273 101.2456 311.457 102.5487 307.1565 102.5487ZM311.3266 98.6391C312.63 98.7695 314.3239 97.9877 314.4543 94.9904 314.7148 90.9505 309.6326 86.7804 301.6831 85.2165 303.3774 91.3414 306.3747 96.8148 309.3718 98.2483 309.763 98.3786 310.4144 98.6391 311.3266 98.6391" fill="#17708d"/>
<path transform="matrix(1,0,0,-1,1,190.5981)" d="M353.9407 146.2051C330.0928 145.2929 315.8881 54.9828 344.558 49.9003 363.8449 46.3819 371.664 90.0383 372.9671 97.727 373.0975 99.03 370.1001 99.6817 369.8396 97.8574 365.148 75.964 355.3744 53.8098 347.5553 53.8098 341.4302 53.9402 340.518 74.0092 342.4728 95.2509 342.6032 95.2509 342.8637 95.2509 342.9941 95.3813 358.5019 103.7217 376.2252 144.5111 355.1136 146.2051 354.7227 146.2051 354.3318 146.2051 353.9407 146.2051ZM356.8079 143.4685C358.111 143.4685 359.0232 142.1654 358.8928 137.3437 358.6323 132.3916 355.5045 110.8891 342.8637 99.2908 345.3398 120.9234 350.5524 142.2955 356.1562 143.3381 356.4167 143.3381 356.5471 143.4685 356.8079 143.4685" fill="#17708d"/>
<path transform="matrix(-.96204,-0,0,-.96204,1,190.5981)" stroke-width="4.0785" stroke-linecap="round" stroke-linejoin="round" fill="none" stroke="#17708d" d="M-141.7518 92.2487C-140.9879 90.1947-140.9057 86.2685-140.8606 83.7686-140.7393 77.1642-144.697 69.9854-144.697 62.6641-143.4271 41.6526-124.2249 40.1655-112.2072 54.174L-109.9358 57.4231C-106.1614 63.2256-104.3887 71.8758-101.3323 76.8994-80.5731 111.0611-45.036 76.9507-14.2041 106.6331-14.2041 106.6331-12.8568 108.148-12.2122 109.5248-11.7442 110.5277-11.6966 110.9874-13.2548 109.0018-42.0732 79.8146-75.5719 115.2848-103.1508 86.8782-105.8632 83.6391-107.6825 79.7689-109.4298 75.9455-120.3534 52.0526-143.0972 44.1873-134.193 73.7595-133.8874 74.5379-133.9974 75.2822-133.7967 76.2435-131.1406 88.9549-133.8228 93.1144-137.9256 105.6747-152.8894 138.1978-154.5364 195.3743-105.2056 163.8351L-98.0532 157.7874C-87.0401 150.1863-77.5247 142.6802-64.438 152.5649L-64.2969 153.3838-66.5972 152.3242C-78.1597 146.5146-86.4136 152.9614-94.5451 159.8559-99.1488 164.0324-104.3657 169.829-109.3436 172.8969-150.1495 196.9705-159.855 152.0218-152.7457 121.4779-150.7343 112.8317-145.021 101.228-141.7518 92.2487Z"/>
<path transform="matrix(1,0,0,-1,1,190.5981)" d="M136.3714 88.7474C135.6367 86.7713 135.5576 82.9942 135.5142 80.589 135.3974 74.2354 139.2049 67.3291 139.2049 60.2855 137.9832 40.0717 119.5098 38.641 107.9481 52.1178L105.7632 55.2436C102.132 60.8258 100.4264 69.1478 97.4863 73.9806 77.5148 106.8457 43.3267 74.0299 13.665 102.5858 13.665 102.5858 12.3687 104.0431 11.7488 105.3677 11.2983 106.3324 11.2527 106.7749 12.7517 104.8646 40.4762 76.7852 72.7036 110.9089 99.2356 83.5807 101.8451 80.4645 103.5952 76.7412 105.2762 73.063 115.7854 50.0769 137.6657 42.51 129.0997 70.96 128.8054 71.7086 128.9115 72.4249 128.7184 73.3496 126.163 85.5785 128.7434 89.5802 132.6906 101.6637 147.0864 132.9523 148.6709 187.9586 101.2124 157.6165L94.3316 151.7984C83.7363 144.4859 74.5821 137.2646 61.9923 146.7743L61.8565 147.562 64.0695 146.5427C75.1929 140.9536 83.1336 147.1555 90.9564 153.7883 95.3855 157.8064 100.4043 163.383 105.1934 166.3345 144.4504 189.4944 153.7875 146.2516 146.948 116.8671 145.0131 108.5491 139.5167 97.386 136.3714 88.7474" fill="#17708d" fill-rule="evenodd"/>
<path transform="matrix(1,0,0,-1,1,190.5981)" d="M53.8818 83.9653C53.8818 80.4112 54.4635 77.1962 54.508 73.5883 55.1633 64.7532 61.1722 44.7038 72.6931 53.9385 73.7388 54.777 74.2334 55.5752 74.9506 56.7598 78.1333 62.0232 76.4493 66.4736 81.936 73.8967 83.0186 74.9262 85.7509 76.0618 83.8757 73.8609 83.8477 73.8275 83.8089 73.7782 83.7808 73.7447 77.8907 66.746 82.4587 56.77 74.5875 49.5054 50.4672 31.6414 46.3635 83.442 46.264 83.5418 46.264 83.5418 54.5023 84.0172 53.8818 83.9653" fill="#319daa" fill-rule="evenodd"/>
<path transform="matrix(1,0,0,-1,1,190.5981)" d="M60.5582 138.1079C65.8786 135.1843 65.4934 135.6661 71.5799 136.0052 72.2143 136.0403 72.7427 136.0698 73.114 136.1642 74.3488 136.4774 74.3006 136.6838 75.386 136.4306 68.8326 127.4859 52.9016 139.214 47.7062 142.395 31.0992 143.1941 40.1094 119.8814 44.8523 112.0343L45.8796 110.0988C46.2197 109.5185 46.0641 109.571 46.311 109.0488L48.6944 103.8152C50.8363 98.4501 49.9442 99.8476 46.2076 99.3784 44.945 99.2203 42.8085 98.0861 42.1591 100.0304L38.0871 109.2883C38.0092 109.4105 37.9885 109.3833 37.8445 109.6809 34.7377 116.6536 30.9498 123.9282 30.9498 131.7753 30.9498 139.5471 36.7243 148.2803 44.9158 148.2803 45.3061 148.2803 48.5311 147.4886 48.8324 147.3301 51.6484 145.8473 54.0198 143.6686 56.2969 141.4644 57.2746 140.5179 59.2557 138.9387 60.5582 138.1079" fill="#319daa" fill-rule="evenodd"/>
<path transform="matrix(1,0,0,-1,1,190.5981)" d="M10.3107 124.5322C10.3107 123.5611 10.1792 124.0537 9.7875 123.2082 9.5615 122.7209 9.498 122.3986 9.286 121.8594 8.7528 120.5005 8.5992 120.6604 9.0629 119.1399 9.4626 117.8294 9.4946 117.5743 10.3689 116.7401 10.815 116.3143 11.003 116.2253 11.2153 115.6861 11.4707 115.0359 11.4945 114.7439 10.9939 114.6711 10.4502 114.5923 9.2713 115.5172 8.7182 115.7828L5.6503 116.0425C4.686 115.8625 4.9201 115.9356 4.2948 115.5399 4.0141 115.3624 3.4534 115.0055 3.1898 114.798L1.0749 113.2186C.8036 114.3828 .7067 113.5885 1.9919 115.7652 2.6138 116.8186 2.9605 119.7465 1.525 121.519L.4595 122.7895C.3847 122.9051 .1032 123.3703 .1015 123.3751-.6256 125.358 2.7541 122.4541 4.0765 122.4541 6.4602 122.4541 6.9259 122.5199 9.0403 124.4174 9.7169 125.0243 9.201 124.7601 10.0797 125.2247 10.2379 124.9432 10.3107 124.9781 10.3107 124.5322" fill="#17708d" fill-rule="evenodd"/>
<path transform="matrix(1,0,0,-1,1,190.5981)" d="M28.0602 106.3823C27.8223 106.0781 27.902 106.2646 27.5723 106.0957 27.3821 105.9985 27.2835 105.9131 27.085 105.7961 26.5856 105.5013 26.5765 105.5889 26.3497 104.9992 26.1541 104.491 26.1017 104.4034 26.1711 103.9283 26.2066 103.6857 26.2437 103.6117 26.1782 103.3909 26.0991 103.1247 26.0351 103.0275 25.8605 103.1272 25.6711 103.2358 25.5283 103.8138 25.42 104.0323L24.5231 104.8646C24.177 105.0443 24.2683 105.0097 23.9754 105.0389 23.8442 105.052 23.5811 105.0775 23.4479 105.0772L22.3991 105.1002C22.5992 105.5313 22.3744 105.3062 23.3096 105.6733 23.762 105.8508 24.5871 106.6827 24.5716 107.5893L24.5489 108.2477C24.5537 108.3022 24.5795 108.5168 24.5801 108.5187 24.8377 109.3175 25.1853 107.581 25.5994 107.2573 26.3458 106.674 26.5076 106.5807 27.6341 106.6572 27.9947 106.6819 27.7685 106.7253 28.1574 106.6558 28.1378 106.5288 28.1693 106.522 28.0602 106.3823" fill="#17708d" fill-rule="evenodd"/>
<path transform="matrix(1,0,0,-1,1,190.5981)" d="M20.0735 85.4011C19.9786 84.3738 19.8425 84.4523 20.4562 83.5115 20.9852 82.6999 21.0574 82.5335 21.8149 82.1387 22.2015 81.9371 22.3469 81.9145 22.5964 81.5902 22.898 81.1987 22.9714 81.0057 22.6457 80.8574 22.2928 80.6973 21.3103 81.0927 20.8826 81.1641L18.7495 80.7381C18.1295 80.4257 18.2747 80.5215 17.928 80.1298 17.7727 79.954 17.4617 79.6017 17.3237 79.4095L16.1983 77.9216C15.7853 78.6583 15.8757 78.0996 16.3199 79.8301 16.5359 80.6675 16.1952 82.7226 14.872 83.6442L13.8988 84.297C13.8251 84.3605 13.5425 84.621 13.5411 84.6241 12.6573 85.8274 15.5225 84.5206 16.4203 84.7803 18.0386 85.2489 18.3413 85.3855 19.4034 87.0894 19.7439 87.6345 19.4457 87.3536 19.9502 87.8417 20.2289 87.3468 20.1566 86.2957 20.0735 85.4011" fill="#17708d" fill-rule="evenodd"/>
<path transform="matrix(1,0,0,-1,1,190.5981)" d="M379.5922 74.6124C380.4914 75.6459 381.7157 75.9059 383.1687 78.7411 384.3927 81.1287 384.2878 82.565 384.594 84.9677 384.8587 87.0466 385.5382 89.2057 386.7299 90.87 387.7319 92.2694 389.5877 93.5535 390.9373 93.6836 385.901 87.4332 388.1214 86.1231 387.8048 81.8957 387.4782 77.5361 383.61 74.2921 379.5922 74.6124" fill="#319daa" fill-rule="evenodd"/>
<path transform="matrix(1,0,0,-1,1,190.5981)" d="M382.932 81.5508C381.8081 77.8158 379.3226 75.1774 376.5696 74.8831 381.3749 79.8917 379.9049 82.6526 380.2825 86.2849 380.5274 88.6433 381.498 90.5964 383.0386 91.908 383.9012 92.6425 386.5374 94.0056 388.1049 93.6125 386.9025 92.9449 385.2315 90.4569 384.5095 88.6754 383.4734 86.1188 383.6721 84.0098 382.932 81.5508" fill="#319daa" fill-rule="evenodd"/>
<path transform="matrix(1,0,0,-1,1,190.5981)" d="M372.126 95.9034 372.8778 98.2324C374.4641 97.8151 376.071 97.2658 377.5949 96.7997 378.9643 96.3811 381.3996 96.0993 381.0611 94.5839 380.6691 92.8295 378.4079 93.9438 377.0048 94.3733 375.4593 94.8461 373.5984 95.3181 372.126 95.9034" fill="#17708d" fill-rule="evenodd"/>
<path transform="matrix(1,0,0,-1,1,190.5981)" d="M370.0089 88.9549 370.7501 91.2988C372.3452 90.847 373.9187 90.3322 375.4715 89.8574 376.8829 89.4257 379.2739 89.1626 378.9289 87.63 378.5272 85.8464 376.2074 87.0284 374.8825 87.4338 373.3248 87.9103 371.5033 88.3772 370.0089 88.9549" fill="#17708d" fill-rule="evenodd"/>
<path transform="matrix(1,0,0,-1,1,190.5981)" d="M368.9524 85.4867 369.688 87.834C371.2864 87.3425 372.8492 86.8671 374.4111 86.3895 375.7728 85.9731 378.2361 85.6828 377.873 84.1595 377.4506 82.3873 375.1807 83.5492 373.8214 83.965 372.2647 84.441 370.4454 84.909 368.9524 85.4867" fill="#17708d" fill-rule="evenodd"/>
<path transform="matrix(1,0,0,-1,1,190.5981)" d="M367.8866 82.0086 368.6281 84.3653C370.2217 83.8743 371.7859 83.3973 373.3495 82.9191 374.7138 82.5015 377.185 82.222 376.808 80.682 376.3797 78.9321 374.1111 80.0858 372.7613 80.4988 371.1628 80.9878 369.4507 81.4521 367.8866 82.0086" fill="#17708d" fill-rule="evenodd"/>
<path transform="matrix(1,0,0,-1,1,190.5981)" d="M371.0693 92.4197 371.8253 94.7767C373.4147 94.2769 374.976 93.8066 376.5336 93.3301 377.9314 92.9027 380.3309 92.6254 379.9871 91.1058 379.5888 89.3446 377.3409 90.4788 375.9443 90.906 374.3478 91.3944 372.6292 91.8584 371.0693 92.4197" fill="#17708d" fill-rule="evenodd"/>
<path transform="matrix(1,0,0,-1,1,190.5981)" d="M366.819 78.5418 367.5657 80.896 373.8172 78.9809C374.9153 78.6453 375.9267 78.4355 375.7609 77.3337 375.5653 76.034 374.468 76.1743 373.3693 76.515 371.2382 77.1758 368.8943 77.7892 366.819 78.5418" fill="#17708d" fill-rule="evenodd"/>
<path transform="matrix(1,0,0,-1,1,190.5981)" d="M97.6238 12.8027C97.6238 23.7617 91.8541 25.3321 86.9261 25.3321 81.9984 25.3321 76.229 23.7274 76.229 12.7684 76.229 1.5364 81.9984 0 86.9261 0 91.8944 0 97.6238 1.4681 97.6238 12.8027ZM91.8541 12.8027C91.8541 7.7156 90.572 3.9603 86.9261 3.9603 83.0401 3.9603 81.9984 8.3645 81.9984 12.7344 81.9984 16.9676 82.9998 21.3718 87.0063 21.3718 90.8127 21.3718 91.8541 16.8653 91.8541 12.8027ZM126.796 12.8027C126.796 18.4357 125.2335 22.3277 121.3872 24.103 119.6646 24.7859 117.3404 25.1271 114.5761 25.1271 110.1691 25.1271 108.4062 25.0931 107.1241 24.9908 106.6836 24.9565 106.4829 24.7175 106.4829 24.2053V1.1951C106.4829 .6829 106.6433 .4096 107.1643 .3416 107.9254 .239 111.0104 .1706 113.815 .1706 118.3825 .1706 121.5473 .9218 123.6308 2.4922 125.9946 4.5408 126.796 7.9206 126.796 12.8027ZM112.0921 21.1329C112.693 21.2012 113.6146 21.2352 114.7365 21.2352 116.6596 21.2352 118.1418 20.7916 119.0633 19.8697 120.8265 18.1627 121.0266 15.1583 121.0266 12.666 121.0266 10.2762 120.8665 7.4083 119.3437 5.6673 118.5024 4.6772 117.2205 4.0626 115.2972 4.0626 114.0953 4.0626 113.1338 4.0626 112.0921 4.1652ZM155.848 12.8027C155.848 23.7617 150.0783 25.3321 145.1506 25.3321 140.2226 25.3321 134.4532 23.7274 134.4532 12.7684 134.4532 1.5364 140.2226 0 145.1506 0 150.1186 0 155.848 1.4681 155.848 12.8027ZM150.0783 12.8027C150.0783 7.7156 148.7962 3.9603 145.1506 3.9603 141.2643 3.9603 140.2226 8.3645 140.2226 12.7344 140.2226 16.9676 141.224 21.3718 145.2305 21.3718 149.0369 21.3718 150.0783 16.8653 150.0783 12.8027ZM180.2925 10.5494 180.4124 3.8237 178.5297 10.1738 174.9237 21.0305C173.9622 24.1373 172.4397 25.0931 169.6351 25.0931 166.5505 25.0931 164.7071 23.5911 164.7071 20.5523V1.1951C164.7071 .7169 164.7873 .3756 165.4688 .3756H169.1946C169.8758 .3756 170.0759 .5805 170.0759 1.2291L169.9557 16.1484 169.8758 21.5084 171.2778 16.6263 175.4847 3.9263C176.366 1.2631 178.0489 .2049 180.773 .2049 183.6179 .2049 185.5809 1.8094 185.5809 4.3016V24.1713C185.5809 24.8542 185.2605 24.9565 184.6596 24.9565H181.1336C180.5329 24.9565 180.2123 24.7859 180.2123 24.1713ZM211.0269 24.9565H193.9192C193.4787 24.9565 193.2384 24.6835 193.2384 24.2736V21.7131C193.2384 21.3035 193.3586 20.9279 193.9192 20.9279H199.6087V1.0585C199.6087 .6489 199.8488 .3756 200.3298 .3756H204.6169C205.2176 .3756 205.338 .7169 205.338 1.1268V20.9279H211.0269C211.5879 20.9279 211.7081 21.3035 211.7081 21.7131V24.2736C211.7081 24.6835 211.4274 24.9565 211.0269 24.9565ZM238.8773 12.8027C238.8773 23.7617 233.1077 25.3321 228.1796 25.3321 223.2519 25.3321 217.4825 23.7274 217.4825 12.7684 217.4825 1.5364 223.2519 0 228.1796 0 233.1479 0 238.8773 1.4681 238.8773 12.8027ZM233.1077 12.8027C233.1077 7.7156 231.8255 3.9603 228.1796 3.9603 224.2936 3.9603 223.2519 8.3645 223.2519 12.7344 223.2519 16.9676 224.2534 21.3718 228.2598 21.3718 232.0662 21.3718 233.1077 16.8653 233.1077 12.8027ZM253.506 24.2736C253.506 24.6835 253.3054 24.9565 252.8249 24.9565H248.4575C247.9371 24.9565 247.7767 24.5469 247.7767 24.1373V3.1751C247.7767 1.6387 248.097 .3756 250.7414 .3756H261.9998C262.5605 .3756 262.7209 .7169 262.7209 1.1268V3.619C262.7209 4.0286 262.4805 4.3359 262.08 4.3359H253.506ZM290.09 12.8027C290.09 23.7617 284.3206 25.3321 279.3926 25.3321 274.4646 25.3321 268.6955 23.7274 268.6955 12.7684 268.6955 1.5364 274.4646 0 279.3926 0 284.3609 0 290.09 1.4681 290.09 12.8027ZM284.3206 12.8027C284.3206 7.7156 283.0385 3.9603 279.3926 3.9603 275.5066 3.9603 274.4646 8.3645 274.4646 12.7344 274.4646 16.9676 275.4663 21.3718 279.4728 21.3718 283.2789 21.3718 284.3206 16.8653 284.3206 12.8027ZM297.7475 12.7684C297.7475 4.6772 301.0329 0 308.6453 0 310.1675 0 313.0523 .3073 315.2157 1.1268 316.8181 1.7753 316.8181 2.3216 316.8181 3.414V10.8224C316.8181 13.0073 315.8569 13.6562 313.653 13.6562H309.3262C308.8854 13.6562 308.605 13.4172 308.605 12.905V10.3788C308.605 9.8325 308.9256 9.6616 309.3661 9.6616H311.4899V4.5408C310.8487 4.3016 309.8069 4.1652 309.0059 4.1652 304.719 4.1652 303.4769 7.3743 303.4769 12.8027 303.4769 17.3775 304.5586 21.2012 308.084 21.2012 309.7267 21.2012 310.7282 20.5523 311.8102 19.0162 312.0103 18.6746 312.251 18.5723 312.6515 18.5723 312.8519 18.5723 313.2125 18.6746 313.3726 18.743L315.8969 19.5282C316.2971 19.6988 316.4176 19.8697 316.4176 20.1087 316.4176 20.2793 316.3374 20.5183 316.2574 20.7573 315.536 22.4983 313.8134 25.3321 308.3244 25.3321 299.9109 25.3321 297.7475 19.5282 297.7475 12.7684ZM331.6876 24.2736C331.6876 24.6835 331.4469 24.9565 330.8862 24.9565H326.8397C326.3187 24.9565 326.0784 24.6835 326.0784 24.2736V1.0585C326.0784 .6489 326.3187 .3756 326.8397 .3756H330.8862C331.5271 .3756 331.6876 .7169 331.6876 1.1268ZM327.3205 28.4389C327.2003 28.2339 327.2003 28.0633 327.2003 27.9609 327.2003 27.756 327.4404 27.517 327.6811 27.517H330.0849C330.6059 27.517 330.9664 27.722 331.367 28.1999L334.8524 32.4332C335.0129 32.6721 335.0531 32.8088 335.0531 32.9794 335.0531 33.2184 334.8927 33.4916 334.3717 33.4916H330.8862C330.3252 33.4916 330.0449 33.2527 329.8448 32.8428ZM356.1321 1.1268C356.2923 .5462 356.4927 .3756 357.1336 .3756H361.1801C361.5809 .3756 361.781 .6489 361.781 .9558 361.781 1.0585 361.781 1.1608 361.7408 1.2291L355.6514 21.3718C355.2506 22.7375 354.2088 25.0931 350.7633 25.0931H350.2423C346.6766 25.0931 345.7551 22.6692 345.3545 21.3718L339.2649 1.2631C339.2649 1.2631 339.2249 1.0925 339.2249 .8878 339.2249 .5805 339.465 .3756 339.8658 .3756H343.9123C344.4732 .3756 344.7136 .5462 344.914 1.1268L346.5564 7.033H354.4492ZM349.3208 17.3432 350.5226 22.0204 351.6849 17.3775 353.3675 10.8224H347.6384Z" fill="#17708d"/>
<path transform="matrix(1,0,0,-1,1,190.5981)" d="M49.3775 181.6498C49.3775 185.2727 48.5212 187.7757 46.4134 188.9175 45.4694 189.3566 44.1958 189.5763 42.6807 189.5763 40.2656 189.5763 39.2995 189.5542 38.5968 189.4884 38.3553 189.4663 38.2456 189.3127 38.2456 188.9833V174.1844C38.2456 173.8551 38.3332 173.6793 38.6186 173.6357 39.0359 173.5696 40.7265 173.5257 42.2637 173.5257 44.7667 173.5257 46.5012 174.0087 47.643 175.0187 48.9385 176.3362 49.3775 178.5098 49.3775 181.6498ZM41.3195 187.0072C41.6489 187.0512 42.1537 187.073 42.7686 187.073 43.8225 187.073 44.6349 186.7876 45.14 186.1948 46.1061 185.097 46.2158 183.1649 46.2158 181.5619 46.2158 180.0249 46.1279 178.1807 45.2937 177.0608 44.8325 176.4241 44.13 176.0289 43.0761 176.0289 42.4174 176.0289 41.8904 176.0289 41.3195 176.0947ZM54.2081 179.8713C54.735 179.8713 54.8887 179.8713 55.0205 179.8931L57.5237 174.0526C57.6774 173.7454 57.8529 173.6575 58.1165 173.6575H60.6195C60.7731 173.6575 60.9489 173.7672 60.9489 173.9429 60.9489 174.0308 60.927 174.1626 60.8831 174.2284L57.7213 180.6398C58.9507 181.2986 60.1146 182.3525 60.1146 184.8115 60.1146 188.2809 58.4459 189.5981 54.8011 189.5981 53.9887 189.5981 51.9905 189.5763 51.5954 189.4663 51.4414 189.4226 51.3539 189.2469 51.3539 188.9393V174.0966C51.3539 173.8111 51.3975 173.6575 51.5954 173.6575H53.9226C54.1423 173.6575 54.2081 173.8111 54.2081 174.0966ZM57.1065 184.7458C57.1065 183.4064 56.755 182.3964 54.8668 182.3964 54.5156 182.3964 54.4277 182.4182 54.2081 182.4622V186.9415C54.4935 186.9854 54.8668 186.9854 54.9986 186.9854 56.272 186.9854 57.1065 186.5682 57.1065 184.7458ZM70.7854 174.1405C70.8732 173.7672 70.9832 173.6575 71.3344 173.6575H73.552C73.7717 173.6575 73.8814 173.8332 73.8814 174.0308 73.8814 174.0966 73.8814 174.1626 73.8595 174.2063L70.522 187.1609C70.3023 188.0393 69.7314 189.5542 67.8433 189.5542H67.5578C65.6036 189.5542 65.0988 187.9954 64.8791 187.1609L61.5416 174.2284C61.5416 174.2284 61.5197 174.1187 61.5197 173.9869 61.5197 173.7893 61.6516 173.6575 61.871 173.6575H64.0885C64.3961 173.6575 64.5279 173.7672 64.6376 174.1405L65.5379 177.9392H69.8632ZM67.0527 184.57 67.7115 187.5781 68.3484 184.5921 69.2705 180.3762H66.1306ZM76.3625 175.0408C76.3625 174.0747 77.0213 173.3281 77.8995 173.3281 78.8658 173.3281 79.5025 174.0747 79.5025 175.0408 79.5025 175.985 78.8876 176.7753 77.8995 176.7753 76.9774 176.7753 76.3625 175.985 76.3625 175.0408" fill="#17708d"/>
</svg>
